<svg width="20" height="20" viewBox="0 0 20 20" fill="none" xmlns="http://www.w3.org/2000/svg">
<path fill-rule="evenodd" clip-rule="evenodd" d="M3.07881 3.06904C6.87414 -0.720946 13.0438 -0.680648 16.8623 3.1379C20.6825 6.95809 20.7212 13.1314 16.9263 16.9263C13.1314 20.7212 6.95805 20.6826 3.13786 16.8624C0.874009 14.5985 -0.0608399 11.51 0.340593 8.58135C0.396842 8.17097 0.775118 7.8839 1.18549 7.94015C1.59587 7.9964 1.88295 8.37467 1.8267 8.78505C1.48672 11.2654 2.27794 13.8811 4.19852 15.8017C7.443 19.0462 12.6665 19.0648 15.8656 15.8657C19.0647 12.6665 19.0461 7.44304 15.8017 4.19856C12.5588 0.955737 7.33901 0.935512 4.13947 4.12969L4.88717 4.13345C5.30138 4.13553 5.63547 4.473 5.63339 4.88721C5.63131 5.30142 5.29384 5.63551 4.87963 5.63343L2.33408 5.62064C1.92281 5.61857 1.58993 5.28569 1.58786 4.87442L1.57507 2.32887C1.57299 1.91466 1.90708 1.57719 2.32129 1.57511C2.7355 1.57302 3.07297 1.90712 3.07505 2.32133L3.07881 3.06904ZM10 5.25004C10.4142 5.25004 10.75 5.58583 10.75 6.00004V9.68938L13.0303 11.9697C13.3232 12.2626 13.3232 12.7375 13.0303 13.0304C12.7374 13.3233 12.2626 13.3233 11.9697 13.0304L9.25 10.3107V6.00004C9.25 5.58583 9.58579 5.25004 10 5.25004Z" fill="#AEAEB2"/>
</svg>
