<svg width="18" height="17" viewBox="0 0 18 17" fill="none" xmlns="http://www.w3.org/2000/svg">
<path fill-rule="evenodd" clip-rule="evenodd" d="M17.3333 8.5364C17.3333 13.1388 13.6024 16.8697 8.99999 16.8697C4.39762 16.8697 0.666656 13.1388 0.666656 8.5364C0.666656 3.93402 4.39762 0.203064 8.99999 0.203064C13.6024 0.203064 17.3333 3.93402 17.3333 8.5364ZM12.3586 6.01112C12.6027 6.2552 12.6027 6.65093 12.3586 6.89501L8.19193 11.0617C7.94785 11.3058 7.55213 11.3058 7.30805 11.0617L5.64138 9.39501C5.3973 9.15093 5.3973 8.7552 5.64138 8.51112C5.88546 8.26704 6.28119 8.26704 6.52527 8.51112L7.74999 9.73585L9.61235 7.87349L11.4747 6.01112C11.7188 5.76704 12.1145 5.76704 12.3586 6.01112Z" fill="#34C759"/>
</svg>
