<svg width="22" height="22" viewBox="0 0 22 22" fill="none" xmlns="http://www.w3.org/2000/svg">
<path d="M10.25 1C10.25 0.585786 10.5858 0.25 11 0.25C16.9371 0.25 21.75 5.06294 21.75 11C21.75 16.9371 16.9371 21.75 11 21.75C5.06294 21.75 0.25 16.9371 0.25 11C0.25 7.99296 1.48564 5.27316 3.47497 3.32299C3.77076 3.03302 4.24561 3.03774 4.53557 3.33353C4.82554 3.62932 4.82082 4.10417 4.52503 4.39414C2.81163 6.07382 1.75 8.41225 1.75 11C1.75 16.1086 5.89137 20.25 11 20.25C16.1086 20.25 20.25 16.1086 20.25 11C20.25 5.89137 16.1086 1.75 11 1.75C10.5858 1.75 10.25 1.41421 10.25 1Z" fill="white"/>
<path d="M10.25 4C10.25 3.58579 10.5858 3.25 11 3.25C15.2802 3.25 18.75 6.71979 18.75 11C18.75 15.2802 15.2802 18.75 11 18.75C6.71979 18.75 3.25 15.2802 3.25 11C3.25 10.5858 3.58579 10.25 4 10.25C4.41421 10.25 4.75 10.5858 4.75 11C4.75 14.4518 7.54822 17.25 11 17.25C14.4518 17.25 17.25 14.4518 17.25 11C17.25 7.54822 14.4518 4.75 11 4.75C10.5858 4.75 10.25 4.41421 10.25 4Z" fill="white"/>
<path d="M11 6.25C10.5858 6.25 10.25 6.58579 10.25 7C10.25 7.41421 10.5858 7.75 11 7.75C12.7949 7.75 14.25 9.20507 14.25 11C14.25 12.7949 12.7949 14.25 11 14.25C10.5858 14.25 10.25 14.5858 10.25 15C10.25 15.4142 10.5858 15.75 11 15.75C13.6234 15.75 15.75 13.6234 15.75 11C15.75 8.37665 13.6234 6.25 11 6.25Z" fill="white"/>
</svg>
