<svg width="20" height="21" viewBox="0 0 20 21" fill="none" xmlns="http://www.w3.org/2000/svg">
<path fill-rule="evenodd" clip-rule="evenodd" d="M18.3333 10.5364C18.3333 15.1388 14.6024 18.8697 9.99999 18.8697C5.39762 18.8697 1.66666 15.1388 1.66666 10.5364C1.66666 5.93402 5.39762 2.20306 9.99999 2.20306C14.6024 2.20306 18.3333 5.93402 18.3333 10.5364ZM13.3586 8.01112C13.6027 8.2552 13.6027 8.65093 13.3586 8.89501L9.19193 13.0617C8.94785 13.3058 8.55213 13.3058 8.30805 13.0617L6.64138 11.395C6.3973 11.1509 6.3973 10.7552 6.64138 10.5111C6.88546 10.267 7.28119 10.267 7.52527 10.5111L8.74999 11.7358L10.6124 9.87349L12.4747 8.01112C12.7188 7.76704 13.1145 7.76704 13.3586 8.01112Z" fill="#FF3B30"/>
</svg>
