<svg width="25" height="24" viewBox="0 0 25 24" fill="none" xmlns="http://www.w3.org/2000/svg">
<path d="M12.4999 9.707L6.81592 12L12.4999 3V9.707Z" fill="url(#paint0_linear_1_1235)"/>
<path d="M12.5 9.707L18.184 12L12.5 3V9.707Z" fill="url(#paint1_linear_1_1235)"/>
<path d="M12.4999 14.843L6.81592 11.849L12.4999 9.63196V14.843Z" fill="url(#paint2_linear_1_1235)"/>
<path d="M12.5049 14.843L18.1849 11.849L12.5049 9.63196V14.843Z" fill="#FBFCF7"/>
<path d="M15.498 8.15805L15.2 13.43L12.433 9.83005L9.68601 13.558L9.36401 8.45605L9.50001 8.45205L9.79401 13.17L12.428 9.60305L15.08 13.051L15.36 8.14905L15.502 8.15805H15.498Z" fill="#B0B4E9"/>
<path d="M9.44989 8.68896C9.63696 8.69109 9.81723 8.61889 9.95111 8.4882C10.085 8.35751 10.1615 8.17903 10.1639 7.99196C10.1613 7.80488 10.0845 7.62651 9.95041 7.496C9.81634 7.3655 9.63596 7.29355 9.44889 7.29596C9.26181 7.29355 9.08143 7.3655 8.94737 7.496C8.8133 7.62651 8.73652 7.80488 8.73389 7.99196C8.73389 8.37696 9.05489 8.68896 9.44989 8.68896Z" fill="url(#paint3_linear_1_1235)"/>
<path d="M9.60987 7.45803C9.66687 7.42003 9.78987 7.47803 9.84687 7.51003C9.86087 7.56203 9.88487 7.67103 9.81887 7.70003C9.73887 7.73303 9.74787 7.64303 9.66687 7.61403C9.58687 7.58103 9.52987 7.51003 9.60487 7.45803H9.60987Z" fill="#DADCF4"/>
<path d="M12.5038 10.3521C12.5966 10.3534 12.6888 10.3364 12.775 10.3021C12.8612 10.2677 12.9398 10.2167 13.0063 10.152C13.0728 10.0873 13.1259 10.0101 13.1626 9.92479C13.1992 9.83952 13.2186 9.74786 13.2198 9.65506C13.2185 9.56234 13.199 9.47079 13.1623 9.38563C13.1256 9.30047 13.0725 9.22338 13.006 9.15875C12.9395 9.09412 12.8609 9.04321 12.7748 9.00895C12.6886 8.97469 12.5965 8.95773 12.5038 8.95906C12.3167 8.95665 12.1364 9.0286 12.0023 9.1591C11.8682 9.28961 11.7915 9.46798 11.7888 9.65506C11.7888 10.0401 12.1088 10.3521 12.5038 10.3521Z" fill="url(#paint4_linear_1_1235)"/>
<path d="M12.6609 9.12497C12.7229 9.08297 12.8459 9.13997 12.8979 9.17297C12.9179 9.22997 12.9359 9.33897 12.8749 9.36297C12.7939 9.39497 12.8029 9.30997 12.7229 9.27697C12.6379 9.24897 12.5809 9.17697 12.6609 9.12497Z" fill="#DADCF4"/>
<path d="M15.4498 8.68896C15.5426 8.69028 15.6348 8.67329 15.721 8.63897C15.8072 8.60464 15.8859 8.55365 15.9524 8.48891C16.0189 8.42418 16.0719 8.34696 16.1086 8.26169C16.1452 8.17642 16.1647 8.08476 16.1658 7.99196C16.1632 7.80488 16.0864 7.62651 15.9524 7.496C15.8183 7.3655 15.6379 7.29355 15.4508 7.29596C15.2638 7.29355 15.0834 7.3655 14.9493 7.496C14.8153 7.62651 14.7385 7.80488 14.7358 7.99196C14.7358 8.37696 15.0558 8.68896 15.4508 8.68896" fill="url(#paint5_linear_1_1235)"/>
<path d="M15.6079 7.45803C15.6689 7.42003 15.7919 7.47803 15.8439 7.51003C15.8639 7.56203 15.8819 7.67103 15.8209 7.70003C15.7409 7.73303 15.7499 7.64303 15.6639 7.61403C15.5839 7.58103 15.5319 7.51003 15.6079 7.45803Z" fill="#DADCF4"/>
<path d="M15.1479 14.057C15.3349 14.0594 15.5153 13.9875 15.6494 13.857C15.7834 13.7264 15.8602 13.5481 15.8629 13.361C15.8617 13.2683 15.8423 13.1767 15.8057 13.0915C15.7691 13.0063 15.7161 12.9291 15.6497 12.8644C15.5833 12.7997 15.5048 12.7487 15.4187 12.7143C15.3326 12.6799 15.2406 12.6628 15.1479 12.664C15.0551 12.6628 14.9631 12.6799 14.877 12.7143C14.7909 12.7487 14.7124 12.7997 14.646 12.8644C14.5796 12.9291 14.5266 13.0063 14.49 13.0915C14.4535 13.1767 14.434 13.2683 14.4329 13.361C14.4329 13.745 14.7529 14.057 15.1479 14.057Z" fill="url(#paint6_linear_1_1235)"/>
<path d="M15.3039 12.825C15.3659 12.787 15.4889 12.844 15.5409 12.877C15.5599 12.929 15.5789 13.037 15.5169 13.067C15.4369 13.099 15.4469 13.009 15.3609 12.981C15.2809 12.948 15.2279 12.877 15.3039 12.825Z" fill="#DADCF4"/>
<path d="M9.71502 14.057C9.9021 14.0594 10.0825 13.9875 10.2165 13.857C10.3506 13.7265 10.4274 13.5481 10.43 13.361C10.4288 13.2683 10.4094 13.1767 10.3729 13.0915C10.3363 13.0063 10.2833 12.9291 10.2169 12.8644C10.1505 12.7997 10.072 12.7487 9.98589 12.7143C9.89978 12.6799 9.80774 12.6628 9.71502 12.664C9.62223 12.6627 9.53008 12.6797 9.44385 12.714C9.35762 12.7483 9.27901 12.7993 9.21251 12.8641C9.14601 12.9288 9.09292 13.006 9.05629 13.0913C9.01966 13.1766 9.0002 13.2682 8.99902 13.361C8.99902 13.745 9.31902 14.057 9.71502 14.057Z" fill="url(#paint7_linear_1_1235)"/>
<path d="M9.87098 12.825C9.93298 12.787 10.061 12.844 10.108 12.877C10.128 12.929 10.151 13.037 10.084 13.067C10.004 13.099 10.014 13.009 9.93298 12.981C9.85298 12.948 9.79598 12.877 9.87098 12.825Z" fill="#DADCF4"/>
<path d="M12.5519 16.169L6.86792 12.947L12.5519 21V16.169Z" fill="url(#paint8_linear_1_1235)"/>
<path d="M12.5 16.169L18.184 12.947L12.5 21V16.169Z" fill="#C8CCF7"/>
<defs>
<linearGradient id="paint0_linear_1_1235" x1="7.01492" y1="17.912" x2="16.2519" y2="6.837" gradientUnits="userSpaceOnUse">
<stop stop-color="#A795F2"/>
<stop offset="1" stop-color="#B7D0E1"/>
</linearGradient>
<linearGradient id="paint1_linear_1_1235" x1="6.816" y1="6.553" x2="14.736" y2="19.835" gradientUnits="userSpaceOnUse">
<stop stop-color="#E1F0F3"/>
<stop offset="1" stop-color="#B3DBF5"/>
</linearGradient>
<linearGradient id="paint2_linear_1_1235" x1="18.0329" y1="6.02796" x2="7.83892" y2="8.20996" gradientUnits="userSpaceOnUse">
<stop stop-color="#DEE1F9"/>
<stop offset="1" stop-color="#D6CDFB"/>
</linearGradient>
<linearGradient id="paint3_linear_1_1235" x1="17.5439" y1="6.61196" x2="6.51688" y2="13.161" gradientUnits="userSpaceOnUse">
<stop stop-color="#C0C7F2"/>
<stop offset="1" stop-color="#7890D6"/>
</linearGradient>
<linearGradient id="paint4_linear_1_1235" x1="17.5058" y1="6.67306" x2="6.50382" y2="13.1741" gradientUnits="userSpaceOnUse">
<stop stop-color="#C0C7F2"/>
<stop offset="1" stop-color="#7890D6"/>
</linearGradient>
<linearGradient id="paint5_linear_1_1235" x1="17.5058" y1="6.61196" x2="6.47884" y2="13.161" gradientUnits="userSpaceOnUse">
<stop stop-color="#C0C7F2"/>
<stop offset="1" stop-color="#7890D6"/>
</linearGradient>
<linearGradient id="paint6_linear_1_1235" x1="17.5069" y1="6.613" x2="6.50386" y2="13.114" gradientUnits="userSpaceOnUse">
<stop stop-color="#C0C7F2"/>
<stop offset="1" stop-color="#7890D6"/>
</linearGradient>
<linearGradient id="paint7_linear_1_1235" x1="17.544" y1="6.61301" x2="6.54202" y2="13.114" gradientUnits="userSpaceOnUse">
<stop stop-color="#C0C7F2"/>
<stop offset="1" stop-color="#7890D6"/>
</linearGradient>
<linearGradient id="paint8_linear_1_1235" x1="8.02792" y1="4.05902" x2="20.5009" y2="16.409" gradientUnits="userSpaceOnUse">
<stop stop-color="#6E89D3"/>
<stop offset="1" stop-color="#677FF0"/>
</linearGradient>
</defs>
</svg>
