<svg width="13" height="18" viewBox="0 0 13 18" fill="none" xmlns="http://www.w3.org/2000/svg">
<path d="M5.24608 2.06605C5.29485 2.0766 5.34531 2.0766 5.39408 2.06605C5.41408 2.06071 5.42641 2.04505 5.43108 2.01905L5.78108 0.0280453C5.78241 0.00604532 5.79475 -0.00295486 5.81808 0.00104514L7.76108 0.393045C7.77041 0.393045 7.77708 0.398378 7.78108 0.409045L7.79208 0.435045L7.77608 0.595045C7.66675 1.24571 7.55575 1.89671 7.44308 2.54805L7.45908 2.55805L8.59208 2.82305C8.60654 2.82691 8.62169 2.82748 8.6364 2.82471C8.65111 2.82194 8.66501 2.8159 8.67708 2.80705C8.70152 2.78919 8.71831 2.76276 8.72408 2.73305L9.06808 0.732045C9.07287 0.711438 9.08408 0.692882 9.10008 0.679045C9.10782 0.673956 9.11648 0.670452 9.12558 0.668736C9.13468 0.667019 9.14402 0.667124 9.15308 0.669045C9.76708 0.774045 10.4031 0.923045 11.0431 1.04904C11.0797 1.05904 11.0957 1.08238 11.0911 1.11905C10.9829 1.79283 10.8662 2.46521 10.7411 3.13605C10.7151 3.27905 10.7511 3.32105 10.8741 3.37405C11.3266 3.563 11.732 3.8493 12.0614 4.21258C12.3908 4.57587 12.6362 5.00724 12.7801 5.47605C12.8751 5.83005 12.8541 6.15305 12.8481 6.52405C12.8182 6.98236 12.681 7.42724 12.4475 7.82277C12.2141 8.2183 11.8909 8.5534 11.5041 8.80104C11.0415 9.10943 10.5289 9.33512 9.98908 9.46805C8.95208 9.71704 7.75008 9.82804 6.69608 9.62105C6.50008 9.57905 6.31008 9.60004 6.11908 9.58404C5.66774 9.54375 5.21297 9.59888 4.78433 9.74583C4.35568 9.89279 3.96275 10.1283 3.63108 10.437C3.06726 11.0072 2.66995 11.7205 2.48208 12.5V12.554C2.49208 12.574 2.50808 12.591 2.52408 12.596L2.66708 12.638C4.11808 12.914 5.92908 13.411 7.26308 13.506C8.59208 13.596 9.55508 12.278 9.10008 10.928C9.09691 10.9155 9.0987 10.9023 9.10508 10.891L9.12108 10.875L9.13708 10.87C10.0111 10.817 10.5821 10.605 11.3611 10.26C11.4661 10.208 11.5411 10.309 11.6251 10.41C12.0751 10.984 12.2991 11.703 12.2551 12.432C12.2423 13.1219 12.0146 13.7905 11.6038 14.3447C11.1929 14.899 10.6194 15.3113 9.96308 15.524C9.60775 15.6347 9.34308 15.6927 9.16908 15.698C8.9916 15.7063 8.81468 15.724 8.63908 15.751C8.61308 15.751 8.58608 15.767 8.56508 15.788C8.54319 15.8098 8.52853 15.8377 8.52308 15.868L8.17308 17.932C8.17308 17.954 8.15808 17.97 8.14208 17.985C8.13312 17.9916 8.12274 17.9959 8.11179 17.9976C8.10083 17.9994 8.08962 17.9985 8.07908 17.995L6.20908 17.625C6.20221 17.6252 6.19538 17.624 6.18902 17.6214C6.18265 17.6188 6.17689 17.615 6.17208 17.61C6.16458 17.5989 6.16105 17.5855 6.16208 17.572L6.17708 17.377C6.28508 16.731 6.39108 16.085 6.49508 15.439L6.49008 15.418L6.47408 15.402L6.45308 15.392L5.35708 15.206C5.33986 15.2026 5.32212 15.2027 5.30493 15.2063C5.28774 15.2099 5.27147 15.217 5.25708 15.227C5.24217 15.2385 5.22971 15.2527 5.22043 15.2691C5.21115 15.2854 5.20525 15.3034 5.20308 15.322L4.87508 17.244C4.86375 17.3194 4.82308 17.3494 4.75308 17.334L2.90008 16.964C2.88102 16.9595 2.8643 16.9481 2.85308 16.932C2.84386 16.9142 2.84171 16.8934 2.84708 16.874L3.18108 14.936C3.18613 14.9126 3.18258 14.8881 3.17108 14.867C3.15735 14.8462 3.1363 14.8312 3.11208 14.825L0.237081 14.253C0.163081 14.243 0.131081 14.184 0.152081 14.094C0.295081 13.337 0.497081 12.591 0.740081 11.865C0.987081 11.121 1.31008 10.405 1.70408 9.72604C2.45508 8.45605 3.85408 7.86805 5.19808 7.74105C5.50008 7.70905 5.79108 7.67105 6.09808 7.69305C6.77008 7.74605 7.42708 7.81504 8.09908 7.90004C8.22641 7.91071 8.35375 7.91071 8.48108 7.90004C9.40708 7.83604 10.0311 7.05205 9.85708 6.06805C9.69308 5.14705 8.81408 4.95605 7.98308 4.76005C7.48133 4.6406 6.97649 4.53456 6.46908 4.44205C6.38308 4.42738 6.33175 4.46271 6.31508 4.54805L6.00308 6.38505C5.99999 6.40814 5.99074 6.42997 5.97632 6.44827C5.96189 6.46657 5.94281 6.48065 5.92108 6.48905C5.9069 6.49515 5.8915 6.49789 5.87608 6.49705C5.02808 6.46004 4.18108 6.55005 3.37608 6.87705C3.20275 6.94838 3.02841 7.01738 2.85308 7.08404L2.83708 7.07905L2.83108 7.06905V7.05205L3.34008 4.14605C3.39308 3.86605 3.28708 3.65305 3.04308 3.51105C2.78908 3.35705 2.40808 3.32505 2.10608 3.26105C2.0981 3.25872 2.0907 3.25477 2.08433 3.24943C2.07796 3.24409 2.07277 3.23749 2.06908 3.23005C2.06007 3.21577 2.05652 3.19873 2.05908 3.18205L2.34908 1.48805V1.47205L2.36008 1.46705C2.36622 1.46283 2.3737 1.46105 2.38108 1.46205C3.33441 1.65871 4.28775 1.85971 5.24108 2.06505L5.24608 2.06605Z" fill="#FF9500"/>
</svg>
