<svg width="18" height="16" viewBox="0 0 18 16" fill="none" xmlns="http://www.w3.org/2000/svg">
<path fill-rule="evenodd" clip-rule="evenodd" d="M7.2864 0.708374H10.7138C12.2452 0.708361 13.4583 0.708351 14.4076 0.835987C15.3846 0.967343 16.1754 1.24411 16.799 1.86774C17.3641 2.43281 17.6451 3.13598 17.7904 3.99264C17.8965 4.61802 17.9353 5.35801 17.9497 6.22869C17.9554 6.26273 17.9584 6.2977 17.9584 6.33337C17.9584 6.36279 17.9564 6.39174 17.9525 6.42007C17.9554 6.65875 17.9569 6.90691 17.9576 7.16488C17.9586 7.51005 17.6796 7.79069 17.3345 7.7917C16.9893 7.79272 16.7087 7.51371 16.7076 7.16854C16.7074 7.09741 16.7072 7.02736 16.7068 6.95837H1.2934C1.29182 7.28203 1.29175 7.62846 1.29175 8.00004C1.29175 9.58906 1.29308 10.7179 1.40821 11.5743C1.52094 12.4127 1.73233 12.8958 2.085 13.2485C2.43768 13.6011 2.92071 13.8125 3.75912 13.9252C4.61551 14.0404 5.7444 14.0417 7.33341 14.0417H8.58342C8.92859 14.0417 9.20842 14.3215 9.20842 14.6667C9.20842 15.0119 8.92859 15.2917 8.58342 15.2917H7.28641C5.75494 15.2917 4.54191 15.2917 3.59256 15.1641C2.61554 15.0327 1.82475 14.756 1.20112 14.1323C0.577482 13.5087 0.300717 12.7179 0.169361 11.7409C0.0417246 10.7915 0.0417351 9.57852 0.0417483 8.04706V7.95303C0.0417435 7.40156 0.0417392 6.89138 0.047695 6.41994C0.0437748 6.39165 0.0417486 6.36275 0.0417486 6.33337C0.0417486 6.29768 0.0447413 6.26268 0.0504893 6.22862C0.0631163 5.47263 0.093973 4.81992 0.169361 4.25919C0.300717 3.28217 0.577482 2.49138 1.20112 1.86774C1.82475 1.24411 2.61554 0.967343 3.59256 0.835987C4.54191 0.708351 5.75493 0.708361 7.2864 0.708374ZM1.31348 5.70837H16.6866C16.6667 5.1127 16.629 4.61988 16.558 4.20175C16.439 3.50019 16.236 3.07247 15.9152 2.75163C15.5625 2.39895 15.0794 2.18756 14.241 2.07484C13.3847 1.9597 12.2558 1.95837 10.6667 1.95837H7.33342C5.7444 1.95837 4.61551 1.9597 3.75912 2.07484C2.92071 2.18756 2.43768 2.39895 2.085 2.75163C1.73233 3.1043 1.52094 3.58734 1.40821 4.42575C1.3583 4.79699 1.32978 5.21943 1.31348 5.70837ZM11.9167 9.04171C12.2619 9.04171 12.5417 9.32153 12.5417 9.66671V13.1578L13.1415 12.5581C13.3856 12.314 13.7813 12.314 14.0254 12.5581C14.2694 12.8022 14.2694 13.1979 14.0254 13.442L12.3587 15.1086C12.1146 15.3527 11.7189 15.3527 11.4748 15.1086L9.80814 13.442C9.56406 13.1979 9.56406 12.8022 9.80814 12.5581C10.0522 12.314 10.4479 12.314 10.692 12.5581L11.2917 13.1578V9.66671C11.2917 9.32153 11.5716 9.04171 11.9167 9.04171ZM15.2248 9.22477C15.4689 8.98069 15.8646 8.98069 16.1087 9.22477L17.7754 10.8914C18.0194 11.1355 18.0194 11.5312 17.7754 11.7753C17.5313 12.0194 17.1356 12.0194 16.8915 11.7753L16.2917 11.1756V14.6667C16.2917 15.0119 16.0119 15.2917 15.6667 15.2917C15.3216 15.2917 15.0417 15.0119 15.0417 14.6667V11.1756L14.442 11.7753C14.1979 12.0194 13.8022 12.0194 13.5581 11.7753C13.3141 11.5312 13.3141 11.1355 13.5581 10.8914L15.2248 9.22477ZM3.37508 11.3334C3.37508 10.9882 3.6549 10.7084 4.00008 10.7084H7.33342C7.67859 10.7084 7.95842 10.9882 7.95842 11.3334C7.95842 11.6786 7.67859 11.9584 7.33342 11.9584H4.00008C3.6549 11.9584 3.37508 11.6786 3.37508 11.3334Z" fill="white"/>
</svg>
