<svg width="13" height="8" viewBox="0 0 13 8" fill="none" xmlns="http://www.w3.org/2000/svg">
<path fill-rule="evenodd" clip-rule="evenodd" d="M0.356741 0.774664C0.527237 0.603452 0.804246 0.602871 0.975458 0.773367L3.26135 3.04969C3.56105 3.34815 3.75537 3.54034 3.91719 3.66334C4.06891 3.77865 4.13987 3.79156 4.18687 3.79158C4.23387 3.79159 4.30484 3.77874 4.45664 3.66354C4.61855 3.54066 4.81301 3.3486 5.11293 3.05037L5.27291 2.89129C5.5464 2.61931 5.78213 2.38489 5.99622 2.22239C6.22572 2.04821 6.48072 1.91642 6.79467 1.91639C7.10863 1.91635 7.36366 2.04808 7.5932 2.22221C7.80733 2.38466 8.04312 2.61903 8.31668 2.89096L11.8959 6.44837V4.26497C11.8959 4.02335 12.0918 3.82747 12.3334 3.82747C12.575 3.82747 12.7709 4.02335 12.7709 4.26497V7.50004C12.7709 7.74167 12.575 7.93754 12.3334 7.93754H9.07716C8.83554 7.93754 8.63966 7.74167 8.63966 7.50004C8.63966 7.25842 8.83554 7.06254 9.07716 7.06254H11.2726L7.7202 3.53179C7.42047 3.23388 7.22616 3.04206 7.06436 2.91931C6.91268 2.80424 6.84175 2.79138 6.79478 2.79139C6.7478 2.79139 6.67688 2.80427 6.52522 2.91937C6.36345 3.04215 6.16918 3.23403 5.86952 3.532L5.70953 3.69109C5.43579 3.96332 5.19986 4.19794 4.9856 4.36054C4.75593 4.53484 4.50073 4.66669 4.18655 4.66658C3.87237 4.66646 3.61726 4.53443 3.38772 4.35996C3.17358 4.1972 2.93782 3.9624 2.66428 3.68997C2.65752 3.68324 2.65073 3.67649 2.64393 3.66971L0.358038 1.39338C0.186826 1.22289 0.186245 0.945876 0.356741 0.774664Z" fill="#FF3B30"/>
</svg>
