<svg width="14" height="8" viewBox="0 0 14 8" fill="none" xmlns="http://www.w3.org/2000/svg">
<path fill-rule="evenodd" clip-rule="evenodd" d="M9.1396 1.08334C9.1396 0.841719 9.33548 0.645844 9.5771 0.645844H12.8334C13.075 0.645844 13.2709 0.841719 13.2709 1.08334V4.31841C13.2709 4.56004 13.075 4.75591 12.8334 4.75591C12.5917 4.75591 12.3959 4.56004 12.3959 4.31841V2.13501L8.81662 5.69243C8.54306 5.96435 8.30727 6.19873 8.09314 6.36118C7.8636 6.53531 7.60857 6.66703 7.29461 6.667C6.98066 6.66696 6.72566 6.53518 6.49616 6.36099C6.28207 6.1985 6.04634 5.96408 5.77285 5.6921L5.61287 5.53301C5.31295 5.23478 5.11849 5.04273 4.95658 4.91985C4.80478 4.80464 4.73381 4.79179 4.68681 4.79181C4.63981 4.79183 4.56885 4.80473 4.41713 4.92005C4.25531 5.04304 4.06099 5.23524 3.76129 5.53369L1.4754 7.81002C1.30418 7.98051 1.02718 7.97993 0.85668 7.80872C0.686184 7.63751 0.686765 7.3605 0.857977 7.19L3.16422 4.89341C3.43776 4.62099 3.67352 4.38619 3.88766 4.22342C4.1172 4.04896 4.37231 3.91692 4.68649 3.91681C5.00067 3.91669 5.25587 4.04854 5.48554 4.22284C5.6998 4.38544 5.93573 4.62007 6.20947 4.89229L6.36946 5.05138C6.66912 5.34936 6.86339 5.54123 7.02516 5.66401C7.17682 5.77911 7.24774 5.79199 7.29471 5.792C7.34169 5.792 7.41262 5.77914 7.5643 5.66407C7.72609 5.54133 7.92041 5.3495 8.22014 5.0516L11.7726 1.52084H9.5771C9.33548 1.52084 9.1396 1.32497 9.1396 1.08334Z" fill="#34C759"/>
</svg>
