<svg width="17" height="17" viewBox="0 0 17 17" fill="none" xmlns="http://www.w3.org/2000/svg">
<path d="M11.1667 5.86971V5.20304C11.1667 4.4958 10.8857 3.81752 10.3856 3.31743C9.88553 2.81733 9.20725 2.53638 8.50001 2.53638C7.79277 2.53638 7.11449 2.81733 6.61439 3.31743C6.11429 3.81752 5.83334 4.4958 5.83334 5.20304V5.86971" stroke="#AEAEB2" stroke-width="2" stroke-linecap="round"/>
<path fill-rule="evenodd" clip-rule="evenodd" d="M3.086 5.78906C2.5 6.3744 2.5 7.31773 2.5 9.20306V9.86973C2.5 12.3837 2.5 13.6411 3.28133 14.4217C4.06267 15.2024 5.31933 15.2031 7.83333 15.2031H9.16667C11.6807 15.2031 12.938 15.2031 13.7187 14.4217C14.4993 13.6404 14.5 12.3837 14.5 9.86973V9.20306C14.5 7.31773 14.5 6.3744 13.914 5.78906C13.3287 5.20306 12.3853 5.20306 10.5 5.20306H6.5C4.61467 5.20306 3.67133 5.20306 3.086 5.78906ZM8.5 10.5364C8.67681 10.5364 8.84638 10.4662 8.9714 10.3411C9.09643 10.2161 9.16667 10.0465 9.16667 9.86973C9.16667 9.69292 9.09643 9.52335 8.9714 9.39833C8.84638 9.2733 8.67681 9.20306 8.5 9.20306C8.32319 9.20306 8.15362 9.2733 8.0286 9.39833C7.90357 9.52335 7.83333 9.69292 7.83333 9.86973C7.83333 10.0465 7.90357 10.2161 8.0286 10.3411C8.15362 10.4662 8.32319 10.5364 8.5 10.5364ZM10.5 9.86973C10.5002 10.2835 10.3721 10.6871 10.1333 11.0251C9.8945 11.363 9.55677 11.6185 9.16667 11.7564V13.2031H7.83333V11.7564C7.48743 11.6343 7.18176 11.4194 6.94974 11.1353C6.71771 10.8512 6.56827 10.5088 6.51774 10.1454C6.46721 9.7821 6.51754 9.41188 6.66323 9.07523C6.80892 8.73858 7.04437 8.44847 7.34382 8.2366C7.64327 8.02474 7.99521 7.89928 8.36116 7.87395C8.7271 7.84861 9.09297 7.92438 9.41876 8.09295C9.74455 8.26153 10.0177 8.51643 10.2084 8.82979C10.3991 9.14315 10.5 9.50291 10.5 9.86973Z" fill="#AEAEB2"/>
</svg>
