<svg width="28" height="30" viewBox="0 0 28 30" fill="none" xmlns="http://www.w3.org/2000/svg">
<path d="M5.80863 11.7392C3.49177 10.7793 2.33333 10.2994 2.33333 9.70302C2.33333 9.10665 3.49177 8.62673 5.80863 7.66688L9.08518 6.30946C11.402 5.34961 12.5605 4.86969 14 4.86969C15.4395 4.86969 16.5979 5.34961 18.9148 6.30946L22.1914 7.66688C24.5082 8.62673 25.6667 9.10665 25.6667 9.70302C25.6667 10.2994 24.5082 10.7793 22.1914 11.7392L18.9148 13.0966C16.5979 14.0564 15.4395 14.5364 14 14.5364C12.5605 14.5364 11.402 14.0564 9.08518 13.0966L5.80863 11.7392Z" stroke="#FF9500" stroke-width="1.5"/>
<path d="M25.6667 14.5364C25.6667 14.5364 24.5082 15.6127 22.1914 16.5725L18.9148 17.9299C16.5979 18.8898 15.4395 19.3697 14 19.3697C12.5605 19.3697 11.402 18.8898 9.08518 17.9299L5.80863 16.5725C3.49177 15.6127 2.33333 14.5364 2.33333 14.5364" stroke="#FF9500" stroke-width="1.5" stroke-linecap="round"/>
<path d="M25.6667 19.3697C25.6667 19.3697 24.5082 20.446 22.1914 21.4058L18.9148 22.7633C16.5979 23.7231 15.4395 24.203 14 24.203C12.5605 24.203 11.402 23.7231 9.08518 22.7633L5.80863 21.4058C3.49177 20.446 2.33333 19.3697 2.33333 19.3697" stroke="#FF9500" stroke-width="1.5" stroke-linecap="round"/>
</svg>
